<?xml version="1.0" encoding="UTF-8" standalone="no"?>
<svg width="87px" height="19px" viewBox="0 0 87 19" version="1.1" xmlns="http://www.w3.org/2000/svg" xmlns:xlink="http://www.w3.org/1999/xlink" xmlns:sketch="http://www.bohemiancoding.com/sketch/ns">
    <!-- Generator: Sketch 3.3.3 (12081) - http://www.bohemiancoding.com/sketch -->
    <title>ASP-logo</title>
    <desc>Created with Sketch.</desc>
    <defs>
        <path id="path-1" d="M0.576,3.522 C2.619,6.761 3.789,9.747 3.789,9.747 L8.361,9.734 C6.753,6.103 5.003,2.941 3.137,0.325 L3.139,0.29 L0.576,3.522 L0.576,3.522 Z"></path>
        <path id="path-3" d="M0.327,0.76 C2.092,4.747 4.029,8.167 6.102,10.921 L8.868,8.119 C6.36,4.476 4.9,0.747 4.9,0.747 L0.327,0.76 L0.327,0.76 Z"></path>
        <path id="path-5" d="M10.561,14.995 C7.6,14.995 4.867,12.968 2.838,10.66 C1.481,12.398 0.65,13.897 0.65,13.897 C3.742,17.032 7.08,18.742 10.561,18.742 C17.497,18.742 23.896,12.075 28.882,0.76 L24.624,0.754 C24.624,0.754 18.644,14.995 10.561,14.995 L10.561,14.995 Z"></path>
        <path id="path-7" d="M0.807,18.734 L5.064,18.74 C5.064,18.74 11.045,4.499 19.127,4.499 C22.081,4.499 24.598,6.364 26.835,8.817 C28.076,7.29 29.024,5.582 29.024,5.582 C25.936,2.457 22.604,0.752 19.127,0.752 C12.192,0.752 5.792,7.419 0.807,18.734 L0.807,18.734 Z"></path>
    </defs>
    <g id="Page-1" stroke="none" stroke-width="1" fill="none" fill-rule="evenodd" sketch:type="MSPage">
        <g id="ASP-logo" sketch:type="MSArtboardGroup">
            <g id="Imported-Layers" sketch:type="MSLayerGroup">
                <g>
                    <path d="M52.2339855,13.347 L45.2883833,13.347 L43.6708489,18.747 L39.897,18.747 L46.6837158,0.747 L50.9963446,0.747 L57.752,18.747 L53.8515199,18.747 L52.2339855,13.347 L52.2339855,13.347 Z M51.4084934,11.547 L50.6797666,9.452 C50.0442213,7.62 49.4110653,5.547 48.8077751,3.747 L48.6811439,3.747 C48.1101089,5.547 47.5080133,7.62 46.8426022,9.452 L46.1126808,11.547 L51.4084934,11.547 L51.4084934,11.547 Z" id="Fill-1" fill="#FFFFFF" sketch:type="MSShapeGroup"></path>
                    <path d="M60.771,14.101 C62.018,15.268 63.691,16.065 65.31,16.065 C67.248,16.065 68.336,15.189 68.336,13.835 C68.336,12.402 67.222,11.951 65.629,11.287 L63.266,10.251 C61.54,9.534 59.761,8.181 59.761,5.632 C59.761,2.871 62.204,0.747 65.576,0.747 C67.62,0.747 69.585,1.597 70.938,2.951 L69.345,4.915 C68.257,3.986 67.062,3.429 65.576,3.429 C63.93,3.429 62.867,4.199 62.867,5.473 C62.867,6.827 64.195,7.331 65.629,7.915 L67.965,8.897 C70.035,9.774 71.469,11.074 71.469,13.596 C71.469,16.41 69.133,18.747 65.23,18.747 C62.894,18.747 60.638,17.817 58.992,16.198 L60.771,14.101" id="Fill-2" fill="#FFFFFF" sketch:type="MSShapeGroup"></path>
                    <path d="M74.606,0.747 L80.241,0.747 C84.038,0.747 86.825,2.579 86.825,6.614 C86.825,10.463 83.957,12.747 80.241,12.747 L78.09,12.747 L78.09,18.747 L74.606,18.747 L74.606,0.747 L74.606,0.747 Z M79.975,9.747 C82.577,9.747 83.798,8.738 83.798,6.614 C83.798,4.437 82.498,3.747 79.975,3.747 L78.09,3.747 L78.09,9.747 L79.975,9.747 L79.975,9.747 Z" id="Fill-3" fill="#FFFFFF" sketch:type="MSShapeGroup"></path>
                    <path d="M29.576,12.522 C31.619,15.761 32.789,18.747 32.789,18.747 L37.361,18.734 C35.753,15.103 34.003,11.941 32.137,9.325 L32.139,9.29 L29.576,12.522" id="Fill-4" fill="#FFFFFF" sketch:type="MSShapeGroup"></path>
                    <g id="Group-7" transform="translate(29.000000, 9.000000)">
                        <mask id="mask-2" sketch:name="Clip 6" fill="white">
                            <use xlink:href="#path-1"></use>
                        </mask>
                        <g id="Clip-6"></g>
                        <path d="M0.606,0.29 L8.361,0.29 L8.361,9.746 L0.606,9.746 L0.606,0.29 Z" id="Fill-5" fill="#FFFFFF" sketch:type="MSShapeGroup" mask="url(#mask-2)"></path>
                    </g>
                    <path d="M1.327,0.76 C3.092,4.747 5.029,8.167 7.102,10.921 L9.868,8.119 C7.36,4.476 5.9,0.747 5.9,0.747 L1.327,0.76" id="Fill-8" fill="#FFFFFF" sketch:type="MSShapeGroup"></path>
                    <g id="Group-11" transform="translate(1.000000, 0.000000)">
                        <mask id="mask-4" sketch:name="Clip 10" fill="white">
                            <use xlink:href="#path-3"></use>
                        </mask>
                        <g id="Clip-10"></g>
                        <path d="M0.406,0.747 L8.806,0.747 L8.806,10.921 L0.406,10.921 L0.406,0.747 Z" id="Fill-9" fill="#FFFFFF" sketch:type="MSShapeGroup" mask="url(#mask-4)"></path>
                    </g>
                    <path d="M19.561,14.995 C16.6,14.995 13.867,12.968 11.838,10.66 C10.481,12.398 9.65,13.897 9.65,13.897 C12.742,17.032 16.08,18.742 19.561,18.742 C26.497,18.742 32.896,12.075 37.882,0.76 L33.624,0.754 C33.624,0.754 27.644,14.995 19.561,14.995" id="Fill-12" fill="#FFFFFF" sketch:type="MSShapeGroup"></path>
                    <g id="Group-15" transform="translate(9.000000, 0.000000)">
                        <mask id="mask-6" sketch:name="Clip 14" fill="white">
                            <use xlink:href="#path-5"></use>
                        </mask>
                        <g id="Clip-14"></g>
                        <path d="M0.807,0.754 L28.407,0.754 L28.407,18.741 L0.807,18.741 L0.807,0.754 Z" id="Fill-13" fill="#FFFFFF" sketch:type="MSShapeGroup" mask="url(#mask-6)"></path>
                    </g>
                    <path d="M0.807,18.734 L5.064,18.74 C5.064,18.74 11.045,4.499 19.127,4.499 C22.081,4.499 24.598,6.364 26.835,8.817 C28.076,7.29 29.024,5.582 29.024,5.582 C25.936,2.457 22.604,0.752 19.127,0.752 C12.192,0.752 5.792,7.419 0.807,18.734" id="Fill-16" fill="#FFFFFF" sketch:type="MSShapeGroup"></path>
                    <g id="Group-19">
                        <mask id="mask-8" sketch:name="Clip 18" fill="white">
                            <use xlink:href="#path-7"></use>
                        </mask>
                        <g id="Clip-18"></g>
                        <path d="M0.807,0.752 L28.407,0.752 L28.407,18.739 L0.807,18.739 L0.807,0.752 Z" id="Fill-17" fill="#FFFFFF" sketch:type="MSShapeGroup" mask="url(#mask-8)"></path>
                    </g>
                </g>
            </g>
        </g>
    </g>
</svg>