<?xml version="1.0" encoding="UTF-8" standalone="no"?>
<svg width="80px" height="80px" viewBox="0 0 80 80" version="1.1" xmlns="http://www.w3.org/2000/svg" xmlns:xlink="http://www.w3.org/1999/xlink" xmlns:sketch="http://www.bohemiancoding.com/sketch/ns">
    <!-- Generator: Sketch 3.3.3 (12081) - http://www.bohemiancoding.com/sketch -->
    <title>clock</title>
    <desc>Created with Sketch.</desc>
    <defs></defs>
    <g id="Page-1" stroke="none" stroke-width="1" fill="none" fill-rule="evenodd" sketch:type="MSPage">
        <g id="clock" sketch:type="MSArtboardGroup">
            <g id="Imported-Layers" sketch:type="MSLayerGroup">
                <path d="M0.127495069,39.7633136 C0.127495069,18.0512821 17.9300986,0.448126233 39.8908087,0.448126233 C61.8502564,0.448126233 79.6541223,18.0512821 79.6541223,39.7633136 C79.6541223,61.4766075 61.8502564,79.0797633 39.8908087,79.0797633 C17.9300986,79.0797633 0.127495069,61.4766075 0.127495069,39.7633136 L0.127495069,39.7633136 Z" id="Stroke-1" stroke="#28AAE1" stroke-linecap="round" stroke-linejoin="round" sketch:type="MSShapeGroup"></path>
                <path d="M34.1863511,39.7633136 C34.1863511,36.6491519 36.7400394,34.1232347 39.8908087,34.1232347 C43.0415779,34.1232347 45.5940039,36.6491519 45.5940039,39.7633136 C45.5940039,42.8787377 43.0415779,45.4033925 39.8908087,45.4033925 C36.7400394,45.4033925 34.1863511,42.8787377 34.1863511,39.7633136" id="Fill-2" fill="#28AAE1" sketch:type="MSShapeGroup"></path>
                <path d="M39.8908087,10.9885602 L39.8908087,39.7633136 L55.0374753,52.3083235" id="Stroke-3" stroke="#28AAE1" stroke-linecap="round" stroke-linejoin="round" sketch:type="MSShapeGroup"></path>
            </g>
        </g>
    </g>
</svg>