<?xml version="1.0" encoding="UTF-8" standalone="no"?>
<svg width="212px" height="80px" viewBox="0 0 212 80" version="1.1" xmlns="http://www.w3.org/2000/svg" xmlns:xlink="http://www.w3.org/1999/xlink" xmlns:sketch="http://www.bohemiancoding.com/sketch/ns">
    <!-- Generator: Sketch 3.3.3 (12081) - http://www.bohemiancoding.com/sketch -->
    <title>Design&amp;Dev</title>
    <desc>Created with Sketch.</desc>
    <defs></defs>
    <g id="Page-1" stroke="none" stroke-width="1" fill="none" fill-rule="evenodd" sketch:type="MSPage">
        <g id="Design&amp;Dev" sketch:type="MSArtboardGroup" fill="#444444">
            <g id="Imported-Layers-+-Imported-Layers-Copy-8-+-+" sketch:type="MSLayerGroup">
                <g id="Imported-Layers" transform="translate(132.000000, 0.000000)" sketch:type="MSShapeGroup">
                    <path d="M73.3402469,60.425679 L4.63308642,60.425679 C2.1945679,60.425679 0.21037037,58.4404938 0.21037037,56.0019753 L0.21037037,4.47209877 C0.21037037,2.03358025 2.1945679,0.049382716 4.63308642,0.049382716 L73.3402469,0.049382716 C75.7787654,0.049382716 77.762963,2.03358025 77.762963,4.47209877 L77.762963,56.0019753 C77.762963,58.4404938 75.7787654,60.425679 73.3402469,60.425679 L73.3402469,60.425679 Z M4.63308642,2.02469136 C3.28395062,2.02469136 2.18567901,3.12296296 2.18567901,4.47209877 L2.18567901,56.0019753 C2.18567901,57.3520988 3.28395062,58.4503704 4.63308642,58.4503704 L73.3402469,58.4503704 C74.6893827,58.4503704 75.7876543,57.3520988 75.7876543,56.0019753 L75.7876543,4.47209877 C75.7876543,3.12296296 74.6893827,2.02469136 73.3402469,2.02469136 L4.63308642,2.02469136 L4.63308642,2.02469136 Z M69.9041975,53.5545679 L8.0691358,53.5545679 C7.52395062,53.5545679 7.08148148,53.1120988 7.08148148,52.5669136 L7.08148148,7.90814815 C7.08148148,7.36296296 7.52395062,6.92049383 8.0691358,6.92049383 L69.9041975,6.92049383 C70.4503704,6.92049383 70.8918519,7.36296296 70.8918519,7.90814815 L70.8918519,52.5669136 C70.8918519,53.1120988 70.4503704,53.5545679 69.9041975,53.5545679 L69.9041975,53.5545679 Z M9.05679012,51.5792593 L68.9165432,51.5792593 L68.9165432,8.89580247 L9.05679012,8.89580247 L9.05679012,51.5792593 Z M47.5753086,44.9659259 C47.3224691,44.9659259 47.0696296,44.8701235 46.877037,44.6765432 C46.4908642,44.291358 46.4908642,43.6661728 46.877037,43.28 L59.92,30.237037 L46.877037,17.1940741 C46.4908642,16.8088889 46.4908642,16.1837037 46.877037,15.7975309 C47.2632099,15.4123457 47.8874074,15.4123457 48.2735802,15.7975309 L62.0148148,29.5387654 C62.4009877,29.9249383 62.4009877,30.5501235 62.0148148,30.9353086 L48.2735802,44.6765432 C48.0809877,44.8701235 47.8281481,44.9659259 47.5753086,44.9659259 L47.5753086,44.9659259 Z M30.3980247,44.9659259 C30.1451852,44.9659259 29.8933333,44.8701235 29.6997531,44.6765432 L15.9585185,30.9353086 C15.5733333,30.5501235 15.5733333,29.9249383 15.9585185,29.5387654 L29.6997531,15.7975309 C30.0859259,15.4123457 30.7111111,15.4123457 31.0962963,15.7975309 C31.4824691,16.1837037 31.4824691,16.8088889 31.0962963,17.1940741 L18.0533333,30.237037 L31.0962963,43.28 C31.4824691,43.6661728 31.4824691,44.291358 31.0962963,44.6765432 C30.9037037,44.8701235 30.6508642,44.9659259 30.3980247,44.9659259 L30.3980247,44.9659259 Z" id="Fill-1"></path>
                    <path d="M73.3402469,77.6019753 L4.63308642,77.6019753 C4.24987654,77.6019753 3.90123457,77.3797531 3.73925926,77.0330864 C3.5762963,76.6854321 3.62962963,76.2765432 3.8745679,75.9822222 L12.4632099,65.6760494 C12.6508642,65.4508642 12.9283951,65.3204938 13.2217284,65.3204938 L30.3980247,65.3204938 C30.9441975,65.3204938 31.385679,65.762963 31.385679,66.3081481 C31.385679,66.854321 30.9441975,67.2958025 30.3980247,67.2958025 L13.6839506,67.2958025 L6.74271605,75.6266667 L71.2316049,75.6266667 L64.2893827,67.2958025 L47.5753086,67.2958025 C47.0301235,67.2958025 46.5876543,66.854321 46.5876543,66.3081481 C46.5876543,65.762963 47.0301235,65.3204938 47.5753086,65.3204938 L64.7516049,65.3204938 C65.0449383,65.3204938 65.3224691,65.4508642 65.5101235,65.6760494 L74.0987654,75.9822222 C74.3437037,76.2765432 74.397037,76.6854321 74.2350617,77.0330864 C74.0720988,77.3797531 73.7234568,77.6019753 73.3402469,77.6019753" id="Fill-2"></path>
                    <path d="M47.5753086,70.7308642 L30.3980247,70.7308642 C29.8528395,70.7308642 29.4103704,70.2893827 29.4103704,69.7432099 L29.4103704,59.4380247 C29.4103704,58.8918519 29.8528395,58.4503704 30.3980247,58.4503704 L47.5753086,58.4503704 C48.1204938,58.4503704 48.562963,58.8918519 48.562963,59.4380247 L48.562963,69.7432099 C48.562963,70.2893827 48.1204938,70.7308642 47.5753086,70.7308642 L47.5753086,70.7308642 Z M31.385679,68.7555556 L46.5876543,68.7555556 L46.5876543,60.425679 L31.385679,60.425679 L31.385679,68.7555556 Z" id="Fill-3"></path>
                </g>
                <g id="Imported-Layers-Copy-8" sketch:type="MSShapeGroup">
                    <path d="M10.1980952,25.4361905 L8.84952381,24.087619 L24.087619,8.85142857 L25.4342857,10.1980952 L10.1980952,25.4361905" id="Fill-1"></path>
                    <path d="M55.2380952,22.2990476 L46.272381,13.3333333 L47.6190476,11.9866667 L56.5847619,20.952381 L55.2380952,22.2990476" id="Fill-2"></path>
                    <path d="M17.1428571,52.7752381 L11.9866667,47.6190476 L13.3333333,46.272381 L18.4895238,51.4285714 L17.1428571,52.7752381" id="Fill-3"></path>
                    <path d="M59.72,74.96 L58.3733333,73.6133333 L73.6114286,58.3752381 L74.96,59.7219048 L59.72,74.96" id="Fill-4"></path>
                    <path d="M20.952381,79.4419048 L0.558095238,59.047619 L22.8571429,36.7485714 L43.2514286,57.1428571 L20.952381,79.4419048 L20.952381,79.4419048 Z M3.25142857,59.047619 L20.952381,76.7485714 L40.5580952,57.1428571 L22.8571429,39.4419048 L3.25142857,59.047619 L3.25142857,59.047619 Z" id="Fill-5"></path>
                    <path d="M57.1428571,43.2514286 L36.7485714,22.8571429 L59.047619,0.558095238 L79.4419048,20.952381 L57.1428571,43.2514286 L57.1428571,43.2514286 Z M39.4419048,22.8571429 L57.1428571,40.5580952 L76.7485714,20.952381 L59.047619,3.25142857 L39.4419048,22.8571429 L39.4419048,22.8571429 Z" id="Fill-6"></path>
                    <path d="M22.8571429,39.4419048 L0.558095238,17.1428571 L17.1428571,0.558095238 L39.4419048,22.8571429 L38.0952381,24.2038095 L17.1428571,3.25142857 L3.25142857,17.1428571 L24.2038095,38.0952381 L22.8571429,39.4419048" id="Fill-7"></path>
                    <path d="M79.3104762,79.3085714 L58.5790476,75.1619048 L40.5580952,57.1428571 L41.9047619,55.7961905 L59.5161905,73.4095238 L76.88,76.8819048 L73.407619,59.5180952 L55.7961905,41.9047619 L57.1428571,40.5580952 L75.1638095,58.5771429 L79.3104762,79.3085714" id="Fill-8"></path>
                </g>
                <text id="+" sketch:type="MSTextLayer" font-family="Sofia Pro" font-size="28" font-weight="260">
                    <tspan x="98" y="50">+</tspan>
                </text>
            </g>
        </g>
    </g>
</svg>