<?xml version="1.0" encoding="UTF-8" standalone="no"?>
<svg width="80px" height="80px" viewBox="0 0 80 80" version="1.1" xmlns="http://www.w3.org/2000/svg" xmlns:xlink="http://www.w3.org/1999/xlink" xmlns:sketch="http://www.bohemiancoding.com/sketch/ns">
    <!-- Generator: Sketch 3.4.1 (15681) - http://www.bohemiancoding.com/sketch -->
    <title>PC-design-thin-white</title>
    <desc>Created with Sketch.</desc>
    <defs></defs>
    <g id="Page-1" stroke="none" stroke-width="1" fill="none" fill-rule="evenodd" sketch:type="MSPage">
        <g id="PC-design-thin-white" sketch:type="MSArtboardGroup" fill="#FFFFFF">
            <g id="Imported-Layers-Copy-8" sketch:type="MSLayerGroup" transform="translate(0.108108, 0.108108)">
                <path d="M10.1980952,25.4361905 L8.84952381,24.087619 L24.087619,8.85142857 L25.4342857,10.1980952 L10.1980952,25.4361905" id="Fill-1" sketch:type="MSShapeGroup"></path>
                <path d="M55.2380952,22.2990476 L46.272381,13.3333333 L47.6190476,11.9866667 L56.5847619,20.952381 L55.2380952,22.2990476" id="Fill-2" sketch:type="MSShapeGroup"></path>
                <path d="M17.1428571,52.7752381 L11.9866667,47.6190476 L13.3333333,46.272381 L18.4895238,51.4285714 L17.1428571,52.7752381" id="Fill-3" sketch:type="MSShapeGroup"></path>
                <path d="M59.72,74.96 L58.3733333,73.6133333 L73.6114286,58.3752381 L74.96,59.7219048 L59.72,74.96" id="Fill-4" sketch:type="MSShapeGroup"></path>
                <path d="M20.952381,79.4419048 L0.558095238,59.047619 L22.8571429,36.7485714 L43.2514286,57.1428571 L20.952381,79.4419048 L20.952381,79.4419048 Z M3.25142857,59.047619 L20.952381,76.7485714 L40.5580952,57.1428571 L22.8571429,39.4419048 L3.25142857,59.047619 L3.25142857,59.047619 Z" id="Fill-5" sketch:type="MSShapeGroup"></path>
                <path d="M57.1428571,43.2514286 L36.7485714,22.8571429 L59.047619,0.558095238 L79.4419048,20.952381 L57.1428571,43.2514286 L57.1428571,43.2514286 Z M39.4419048,22.8571429 L57.1428571,40.5580952 L76.7485714,20.952381 L59.047619,3.25142857 L39.4419048,22.8571429 L39.4419048,22.8571429 Z" id="Fill-6" sketch:type="MSShapeGroup"></path>
                <path d="M22.8571429,39.4419048 L0.558095238,17.1428571 L17.1428571,0.558095238 L39.4419048,22.8571429 L38.0952381,24.2038095 L17.1428571,3.25142857 L3.25142857,17.1428571 L24.2038095,38.0952381 L22.8571429,39.4419048" id="Fill-7" sketch:type="MSShapeGroup"></path>
                <path d="M79.3104762,79.3085714 L58.5790476,75.1619048 L40.5580952,57.1428571 L41.9047619,55.7961905 L59.5161905,73.4095238 L76.88,76.8819048 L73.407619,59.5180952 L55.7961905,41.9047619 L57.1428571,40.5580952 L75.1638095,58.5771429 L79.3104762,79.3085714" id="Fill-8" sketch:type="MSShapeGroup"></path>
            </g>
        </g>
    </g>
</svg>