<?xml version="1.0" encoding="UTF-8" standalone="no"?>
<svg width="24px" height="24px" viewBox="0 0 24 24" version="1.1" xmlns="http://www.w3.org/2000/svg" xmlns:xlink="http://www.w3.org/1999/xlink" xmlns:sketch="http://www.bohemiancoding.com/sketch/ns">
    <!-- Generator: Sketch 3.3.3 (12081) - http://www.bohemiancoding.com/sketch -->
    <title>icon-plus</title>
    <desc>Created with Sketch.</desc>
    <defs></defs>
    <g id="Page-1" stroke="none" stroke-width="1" fill="none" fill-rule="evenodd" sketch:type="MSPage">
        <g id="icon-plus" sketch:type="MSArtboardGroup" fill="#00AEFF">
            <g id="Imported-Layers" sketch:type="MSLayerGroup">
                <path d="M11.4782609,6.26086957 L12.5217391,6.26086957 L12.5217391,17.7391304 L11.4782609,17.7391304 L11.4782609,6.26086957 Z" id="Fill-1" sketch:type="MSShapeGroup"></path>
                <path d="M6.26086957,11.4782609 L17.7391304,11.4782609 L17.7391304,12.5217391 L6.26086957,12.5217391 L6.26086957,11.4782609 Z" id="Fill-2" sketch:type="MSShapeGroup"></path>
                <path d="M12,24 C5.38330435,24 0,18.6166957 0,12 C0,5.38330435 5.38330435,0 12,0 C18.6166957,0 24,5.38330435 24,12 C24,18.6166957 18.6166957,24 12,24 L12,24 Z M12,1.04347826 C5.95826087,1.04347826 1.04347826,5.95826087 1.04347826,12 C1.04347826,18.0417391 5.95826087,22.9565217 12,22.9565217 C18.0417391,22.9565217 22.9565217,18.0417391 22.9565217,12 C22.9565217,5.95826087 18.0417391,1.04347826 12,1.04347826 L12,1.04347826 Z" id="Fill-3" sketch:type="MSShapeGroup"></path>
            </g>
        </g>
    </g>
</svg>