<?xml version="1.0" encoding="UTF-8" standalone="no"?>
<svg width="80px" height="80px" viewBox="0 0 80 80" version="1.1" xmlns="http://www.w3.org/2000/svg" xmlns:xlink="http://www.w3.org/1999/xlink" xmlns:sketch="http://www.bohemiancoding.com/sketch/ns">
    <!-- Generator: Sketch 3.4 (15588) - http://www.bohemiancoding.com/sketch -->
    <title>upload</title>
    <desc>Created with Sketch.</desc>
    <defs></defs>
    <g id="Page-1" stroke="none" stroke-width="1" fill="none" fill-rule="evenodd" sketch:type="MSPage">
        <g id="upload" sketch:type="MSArtboardGroup" stroke="#444444" stroke-width="2">
            <g id="Group" sketch:type="MSLayerGroup" transform="translate(1.000000, 13.000000)">
                <path d="M39,49.6363636 L39,21.2727273" id="Shape" sketch:type="MSShapeGroup"></path>
                <path d="M28.3636364,31.9090909 L39,21.2727273 L49.6363636,31.9090909" id="Shape" sketch:type="MSShapeGroup"></path>
                <path d="M53.1818182,53.1818182 L63.8181818,53.1818182 C71.6181818,53.1818182 78,46.8 78,39 C78,31.2 71.6181818,24.8181818 63.8181818,24.8181818 C63.8181818,24.8181818 63.8181818,24.8181818 63.6409091,24.8181818 C62.7545455,10.9909091 51.2318182,0 37.2272727,0 C23.0454545,0 11.3454545,11.1681818 10.6363636,25.35 C4.43181818,26.9454545 0,32.4409091 0,39 C0,46.8 6.38181818,53.1818182 14.1818182,53.1818182 L24.8181818,53.1818182" id="Shape" sketch:type="MSShapeGroup"></path>
            </g>
        </g>
    </g>
</svg>