<?xml version="1.0" encoding="UTF-8" standalone="no"?>
<svg width="80px" height="80px" viewBox="0 0 80 80" version="1.1" xmlns="http://www.w3.org/2000/svg" xmlns:xlink="http://www.w3.org/1999/xlink" xmlns:sketch="http://www.bohemiancoding.com/sketch/ns">
    <!-- Generator: Sketch 3.4.1 (15681) - http://www.bohemiancoding.com/sketch -->
    <title>style-from-url-selected</title>
    <desc>Created with Sketch.</desc>
    <defs></defs>
    <g id="Page-1" stroke="none" stroke-width="1" fill="none" fill-rule="evenodd" sketch:type="MSPage">
        <g id="style-from-url-selected" sketch:type="MSArtboardGroup">
            <g id="Group" sketch:type="MSLayerGroup" transform="translate(1.000000, 1.000000)" stroke="#444444" stroke-width="2">
                <path d="M39,0 L39,78" id="Shape" sketch:type="MSShapeGroup"></path>
                <path d="M0,39 L78,39" id="Shape" sketch:type="MSShapeGroup"></path>
                <path d="M5,20 L72,20" id="Shape" sketch:type="MSShapeGroup"></path>
                <path d="M5,59 L72,59" id="Shape" sketch:type="MSShapeGroup"></path>
                <circle id="Oval" sketch:type="MSShapeGroup" cx="39" cy="39" r="39"></circle>
                <ellipse id="Oval" sketch:type="MSShapeGroup" cx="39.5" cy="39" rx="19.5" ry="39"></ellipse>
            </g>
            <g id="Imported-Layers-+-Path-8-Copy-3" sketch:type="MSLayerGroup" transform="translate(53.000000, 5.000000)">
                <g id="Imported-Layers" fill="#00AEFF" sketch:type="MSShapeGroup">
                    <path d="M11.4782609,6.26086957 L12.5217391,6.26086957 L12.5217391,17.7391304 L11.4782609,17.7391304 L11.4782609,6.26086957 Z" id="Fill-1"></path>
                    <path d="M6.26086957,11.4782609 L17.7391304,11.4782609 L17.7391304,12.5217391 L6.26086957,12.5217391 L6.26086957,11.4782609 Z" id="Fill-2"></path>
                    <path d="M12,24 C5.38330435,24 0,18.6166957 0,12 C0,5.38330435 5.38330435,0 12,0 C18.6166957,0 24,5.38330435 24,12 C24,18.6166957 18.6166957,24 12,24 L12,24 Z" id="Fill-3"></path>
                </g>
                <path d="M8,12 L11.2,16 L16,8" id="Path-8" stroke="#FFFFFF" stroke-width="2" stroke-linecap="round" sketch:type="MSShapeGroup"></path>
            </g>
        </g>
    </g>
</svg>