<?xml version="1.0" encoding="utf-8"?>
<!-- Generator: Adobe Illustrator 19.1.0, SVG Export Plug-In . SVG Version: 6.00 Build 0)  -->
<!DOCTYPE svg PUBLIC "-//W3C//DTD SVG 1.1//EN" "http://www.w3.org/Graphics/SVG/1.1/DTD/svg11.dtd">
<svg version="1.1" id="Layer_1" xmlns:sketch="http://www.bohemiancoding.com/sketch/ns"
	 xmlns="http://www.w3.org/2000/svg" xmlns:xlink="http://www.w3.org/1999/xlink" x="0px" y="0px" viewBox="-269 354 72 86"
	 style="enable-background:new -269 354 72 86;" xml:space="preserve">
<style type="text/css">
	.st0{fill:none;stroke:#706E6E;stroke-width:2;}
</style>
<title>android</title>
<desc>Created with Sketch.</desc>
<g id="Project-Creation" sketch:type="MSPage">
	<g id="project-creation---setup" transform="translate(-1217.000000, -646.000000)" sketch:type="MSArtboardGroup">
		<g id="android" transform="translate(1218.000000, 647.000000)" sketch:type="MSLayerGroup">
			<path id="Fill-1" sketch:type="MSShapeGroup" class="st0" d="M-203.7,381.5L-203.7,381.5c-1.2,0-2.3,0.4-3.2,1.3
				c-0.9,0.9-1.3,1.9-1.3,3.2v20.5c0,1.3,0.4,2.3,1.3,3.2c0.9,0.9,1.9,1.3,3.2,1.3c1.3,0,2.3-0.5,3.2-1.3c0.9-0.9,1.3-1.9,1.3-3.2
				V386c0-1.2-0.5-2.3-1.3-3.2C-201.4,381.9-202.4,381.5-203.7,381.5"/>
			<path id="Fill-3" sketch:type="MSShapeGroup" class="st0" d="M-245.5,367.1c0.5-0.5,1-0.7,1.7-0.7c0.7,0,1.2,0.2,1.7,0.7
				c0.5,0.5,0.7,1,0.7,1.7c0,0.7-0.2,1.2-0.7,1.7c-0.5,0.5-1,0.7-1.7,0.7c-0.6,0-1.2-0.2-1.7-0.7c-0.5-0.5-0.7-1-0.7-1.7
				C-246.2,368.2-246,367.6-245.5,367.1 M-226.9,368.8c0-0.6,0.2-1.2,0.7-1.7c0.5-0.5,1-0.7,1.7-0.7c0.6,0,1.2,0.2,1.7,0.7
				c0.5,0.5,0.7,1,0.7,1.7c0,0.7-0.2,1.2-0.7,1.7c-0.5,0.5-1,0.7-1.7,0.7c-0.7,0-1.2-0.2-1.7-0.7
				C-226.7,370-226.9,369.5-226.9,368.8 M-219.1,354.2c-0.2-0.2-0.5-0.2-0.8-0.2c-0.3,0.1-0.5,0.2-0.7,0.5l-4.2,6.3
				c0,0.1-0.1,0.1-0.1,0.2c-2.7-1-5.8-1.6-9.2-1.7c-3.5,0.2-6.7,0.8-9.5,1.8c0-0.1,0-0.1-0.1-0.2l-4.1-6.3c-0.1-0.2-0.4-0.4-0.7-0.4
				c-0.3-0.1-0.5,0-0.8,0.1c-0.3,0.2-0.4,0.4-0.5,0.7c-0.1,0.3,0,0.5,0.1,0.8l4,6.1c-1.4,0.7-2.7,1.5-4,2.5
				c-4.1,3.3-6.5,7.7-7.1,13.3h44.9c-0.6-5.6-2.9-10-7.1-13.3c-1.3-1-2.6-1.9-4.1-2.5l4.1-6.1c0.1-0.3,0.2-0.5,0.1-0.8
				C-218.7,354.6-218.8,354.4-219.1,354.2"/>
			<path id="Fill-6" sketch:type="MSShapeGroup" class="st0" d="M-264.5,381.5L-264.5,381.5c-1.3,0-2.3,0.4-3.2,1.3
				s-1.3,1.9-1.3,3.2v20.5c0,1.3,0.4,2.3,1.3,3.2c0.9,0.9,1.9,1.3,3.2,1.3h0c1.2,0,2.3-0.5,3.2-1.3c0.9-0.9,1.3-1.9,1.3-3.2V386
				c0-1.2-0.5-2.3-1.3-3.2C-262.2,381.9-263.3,381.5-264.5,381.5"/>
			<path id="Fill-8" sketch:type="MSShapeGroup" class="st0" d="M-229,421.7v11.1c0,1.2,0.5,2.3,1.3,3.2c0.9,0.9,2,1.3,3.2,1.3
				c1.2,0,2.3-0.5,3.2-1.3s1.3-1.9,1.3-3.2v-11.1h3c1.5,0,2.9-0.6,4-1.6c1.1-1.1,1.7-2.4,1.7-4v-34.6h-44.7v34.6
				c0,1.5,0.5,2.9,1.6,4c1.1,1.1,2.4,1.6,4,1.6h2.7v11.1c0,1.2,0.5,2.3,1.3,3.2c0.9,0.9,1.9,1.3,3.2,1.3c1.2,0,2.3-0.5,3.2-1.3
				s1.3-1.9,1.3-3.2v-11.1H-229z"/>
		</g>
	</g>
</g>
</svg>
