<?xml version="1.0" encoding="UTF-8" standalone="no"?>
<svg width="96px" height="161px" viewBox="0 0 96 161" version="1.1" xmlns="http://www.w3.org/2000/svg" xmlns:xlink="http://www.w3.org/1999/xlink" xmlns:sketch="http://www.bohemiancoding.com/sketch/ns">
    <!-- Generator: Sketch 3.4.2 (15857) - http://www.bohemiancoding.com/sketch -->
    <title>watch</title>
    <desc>Created with Sketch.</desc>
    <defs></defs>
    <g id="Page-1" stroke="none" stroke-width="1" fill="none" fill-rule="evenodd" sketch:type="MSPage">
        <g id="watch" sketch:type="MSArtboardGroup">
            <g id="Page-1" sketch:type="MSLayerGroup" transform="translate(1.000000, 0.000000)">
                <path d="M73.0242537,128.448143 L16.7861256,128.448143 C10.0378498,128.448143 4.51615025,122.926443 4.51615025,116.178167 L4.51615025,45.0559261 C4.51615025,38.3071823 10.0378498,32.7859507 16.7861256,32.7859507 L73.0242537,32.7859507 C79.7725296,32.7859507 85.2942291,38.3071823 85.2942291,45.0559261 L85.2942291,116.178167 C85.2942291,122.926443 79.7725296,128.448143 73.0242537,128.448143 L73.0242537,128.448143 Z" id="Stroke-1" stroke="#666666" stroke-width="2" sketch:type="MSShapeGroup"></path>
                <path d="M73.5497956,132.032591 L16.2605837,132.032591 C7.57486946,132.032591 0.46812069,124.925842 0.46812069,116.240128 L0.46812069,44.9943399 C0.46812069,36.3081576 7.57486946,29.2014089 16.2605837,29.2014089 L73.5497956,29.2014089 C82.2359778,29.2014089 89.3422586,36.3081576 89.3422586,44.9943399 L89.3422586,116.240128 C89.3422586,124.925842 82.2359778,132.032591 73.5497956,132.032591 L73.5497956,132.032591 Z" id="Stroke-3" stroke="#666666" stroke-width="2" sketch:type="MSShapeGroup"></path>
                <path d="M90.1401182,83.2326355 L89.3117931,83.2326355 L89.3117931,109.76899 L90.1401182,109.76899 C90.7583202,109.76899 91.2642069,109.25234 91.2642069,108.620567 L91.2642069,84.3810591 C91.2642069,83.7492857 90.7583202,83.2326355 90.1401182,83.2326355 L90.1401182,83.2326355 Z" id="Stroke-5" stroke="#666666" stroke-width="2" sketch:type="MSShapeGroup"></path>
                <path d="M81.6630296,129.777067 C76.665,132.808643 74.1655172,134.958076 71.013202,160.928643" id="Stroke-7" stroke="#666666" stroke-width="2" sketch:type="MSShapeGroup"></path>
                <path d="M8.15516502,129.777067 C13.1531946,132.808643 15.6526773,134.958076 18.8049926,160.928643" id="Stroke-9" stroke="#666666" stroke-width="2" sketch:type="MSShapeGroup"></path>
                <path d="M8.15516502,31.3521059 C13.1531946,28.3205296 15.6526773,26.1710961 18.8049926,0.200529557" id="Stroke-11" stroke="#666666" stroke-width="2" sketch:type="MSShapeGroup"></path>
                <path d="M81.6630296,31.3521059 C76.665,28.3205296 74.1655172,26.1710961 71.013202,0.200529557" id="Stroke-13" stroke="#666666" stroke-width="2" sketch:type="MSShapeGroup"></path>
                <path d="M91.8999581,69.867399 C93.0287266,69.867399 94.1785542,68.894468 94.1785542,67.6940985 L94.1785542,54.8148128 C94.1785542,53.6144433 93.0287266,52.6410443 91.8999581,52.6410443 C91.8999581,52.6410443 87.3090714,51.3232118 87.3090714,61.2528177 C87.3090714,71.1819557 91.8999581,69.867399 91.8999581,69.867399" id="Fill-15" fill="#FFFFFF" sketch:type="MSShapeGroup"></path>
                <path d="M91.8999581,69.867399 C93.0287266,69.867399 94.1785542,68.894468 94.1785542,67.6940985 L94.1785542,54.8148128 C94.1785542,53.6144433 93.0287266,52.6410443 91.8999581,52.6410443 C91.8999581,52.6410443 87.3090714,51.3232118 87.3090714,61.2528177 C87.3090714,71.1819557 91.8999581,69.867399 91.8999581,69.867399 L91.8999581,69.867399 Z" id="Stroke-17" stroke="#666666" stroke-width="2" sketch:type="MSShapeGroup"></path>
                <g id="Group-22" sketch:type="MSShapeGroup">
                    <path id="Fill-19" fill="#FFFFFF" d="M94.1783202,56.4020148 L91.7424828,56.4020148"></path>
                    <path id="Stroke-21" stroke="#666666" stroke-width="2" d="M94.1783202,56.4020148 L91.7424828,56.4020148"></path>
                </g>
                <g id="Group-26" sketch:type="MSShapeGroup">
                    <path id="Fill-23" fill="#FFFFFF" d="M94.1783202,58.2929828 L91.7424828,58.2929828"></path>
                    <path id="Stroke-25" stroke="#666666" stroke-width="2" d="M94.1783202,58.2929828 L91.7424828,58.2929828"></path>
                </g>
                <g id="Group-30" sketch:type="MSShapeGroup">
                    <path id="Fill-27" fill="#FFFFFF" d="M94.1783202,62.0749655 L91.7424828,62.0749655"></path>
                    <path id="Stroke-29" stroke="#666666" stroke-width="2" d="M94.1783202,62.0749655 L91.7424828,62.0749655"></path>
                </g>
                <g id="Group-34" sketch:type="MSShapeGroup">
                    <path id="Fill-31" fill="#FFFFFF" d="M94.1783202,60.1839975 L91.7424828,60.1839975"></path>
                    <path id="Stroke-33" stroke="#666666" stroke-width="2" d="M94.1783202,60.1839975 L91.7424828,60.1839975"></path>
                </g>
                <g id="Group-38" sketch:type="MSShapeGroup">
                    <path id="Fill-35" fill="#FFFFFF" d="M94.1783202,63.9659335 L91.7424828,63.9659335"></path>
                    <path id="Stroke-37" stroke="#666666" stroke-width="2" d="M94.1783202,63.9659335 L91.7424828,63.9659335"></path>
                </g>
                <g id="Group-42" sketch:type="MSShapeGroup">
                    <path id="Fill-39" fill="#FFFFFF" d="M94.1783202,65.8569483 L91.7424828,65.8569483"></path>
                    <path id="Stroke-41" stroke="#666666" stroke-width="2" d="M94.1783202,65.8569483 L91.7424828,65.8569483"></path>
                </g>
                <g id="Group-46" sketch:type="MSShapeGroup">
                    <path id="Fill-43" fill="#FFFFFF" d="M94.1783202,67.7479163 L91.7424828,67.7479163"></path>
                    <path id="Stroke-45" stroke="#666666" stroke-width="2" d="M94.1783202,67.7479163 L91.7424828,67.7479163"></path>
                </g>
                <g id="Group-50" sketch:type="MSShapeGroup">
                    <path id="Fill-47" fill="#FFFFFF" d="M94.1783202,54.511 L91.7424828,54.511"></path>
                    <path id="Stroke-49" stroke="#666666" stroke-width="2" d="M94.1783202,54.511 L91.7424828,54.511"></path>
                </g>
            </g>
        </g>
    </g>
</svg>