<?xml version="1.0" encoding="UTF-8" standalone="no"?>
<svg width="90px" height="90px" viewBox="0 0 90 90" version="1.1" xmlns="http://www.w3.org/2000/svg" xmlns:xlink="http://www.w3.org/1999/xlink">
    <!-- Generator: Sketch 3.7.1 (28215) - http://www.bohemiancoding.com/sketch -->
    <title>Group 5</title>
    <desc>Created with Sketch.</desc>
    <defs>
        <polygon id="path-1" points="15.1807229 75.9036145 74.8192771 75.9036145 85.6626506 90 4.3373494 90"></polygon>
        <mask id="mask-2" maskContentUnits="userSpaceOnUse" maskUnits="objectBoundingBox" x="0" y="0" width="81.3253012" height="14.0963855" fill="white">
            <use xlink:href="#path-1"></use>
        </mask>
        <rect id="path-3" x="33.6144578" y="67.2289157" width="21.686747" height="14.0963855"></rect>
        <mask id="mask-4" maskContentUnits="userSpaceOnUse" maskUnits="objectBoundingBox" x="0" y="0" width="21.686747" height="14.0963855" fill="white">
            <use xlink:href="#path-3"></use>
        </mask>
        <rect id="path-5" x="0" y="0" width="90" height="68.313253" rx="3"></rect>
        <mask id="mask-6" maskContentUnits="userSpaceOnUse" maskUnits="objectBoundingBox" x="0" y="0" width="90" height="68.313253" fill="white">
            <use xlink:href="#path-5"></use>
        </mask>
        <rect id="path-7" x="8.6746988" y="8.6746988" width="72.6506024" height="52.0481928"></rect>
        <mask id="mask-8" maskContentUnits="userSpaceOnUse" maskUnits="objectBoundingBox" x="0" y="0" width="72.6506024" height="52.0481928" fill="white">
            <use xlink:href="#path-7"></use>
        </mask>
    </defs>
    <g id="Project-Creation" stroke="none" stroke-width="1" fill="none" fill-rule="evenodd">
        <g id="Project-Creation---devices---all-platforms" transform="translate(-1007.000000, -295.000000)">
            <g id="Group-5" transform="translate(1007.000000, 295.000000)">
                <g id="desktop-device" stroke="#706E6E" stroke-width="4">
                    <use id="Rectangle-166" mask="url(#mask-2)" stroke-linecap="round" stroke-linejoin="round" xlink:href="#path-1"></use>
                    <use id="Rectangle-165" mask="url(#mask-4)" fill="#FFFFFF" xlink:href="#path-3"></use>
                    <use id="Rectangle-163" mask="url(#mask-6)" xlink:href="#path-5"></use>
                    <use id="Rectangle-164" mask="url(#mask-8)" xlink:href="#path-7"></use>
                </g>
                <g id="Imported-Layers-+-Path-8-Copy-3" transform="translate(33.000000, 22.000000)">
                    <g id="Imported-Layers" fill="#00AEFF">
                        <polygon id="Fill-1" points="11.4782609 6.26086957 12.5217391 6.26086957 12.5217391 17.7391304 11.4782609 17.7391304"></polygon>
                        <polygon id="Fill-2" points="6.26086957 11.4782609 17.7391304 11.4782609 17.7391304 12.5217391 6.26086957 12.5217391"></polygon>
                        <path d="M12,24 C5.38330435,24 0,18.6166957 0,12 C0,5.38330435 5.38330435,0 12,0 C18.6166957,0 24,5.38330435 24,12 C24,18.6166957 18.6166957,24 12,24 L12,24 Z" id="Fill-3"></path>
                    </g>
                    <polyline id="Path-8" stroke="#FFFFFF" stroke-width="2" stroke-linecap="round" points="8 12 11.2 16 16 8"></polyline>
                </g>
            </g>
        </g>
    </g>
</svg>