<?xml version="1.0" encoding="utf-8"?>
<!-- Generator: Adobe Illustrator 19.1.0, SVG Export Plug-In . SVG Version: 6.00 Build 0)  -->
<!DOCTYPE svg PUBLIC "-//W3C//DTD SVG 1.1//EN" "http://www.w3.org/Graphics/SVG/1.1/DTD/svg11.dtd">
<svg version="1.1" id="Layer_1" xmlns="http://www.w3.org/2000/svg" xmlns:xlink="http://www.w3.org/1999/xlink" x="0px" y="0px"
	 viewBox="-268 348 75 97" style="enable-background:new -268 348 75 97;" xml:space="preserve">
<style type="text/css">
	.st0{fill:#545353;}
	.st1{fill:#C3C2C2;}
	.st2{fill:#F0F0F0;}
	.st3{fill:#FFFFFF;}
</style>
<title>Group 4</title>
<desc>Created with Sketch.</desc>
<g id="Project-Creation">
	<g id="DEV---native-or-html" transform="translate(-683.000000, -406.000000)">
		<g id="Group-4" transform="translate(683.000000, 406.000000)">
			<g id="Page-1-Copy">
				<path id="Fill-1" class="st0" d="M-268,348.3l6.8,76.1l30.4,8.4l30.5-8.5l6.8-76.1H-268z"/>
				<path id="Fill-2" class="st1" d="M-206.1,419.5l5.8-65h-30.5v71.8L-206.1,419.5z"/>
				<path id="Fill-3" class="st2" d="M-230.7,392v-9.3h-12.3l-0.9-9.6h13.2v-9.3h0h-23.4l0.2,2.5l2.3,25.7H-230.7z"/>
				<path id="Fill-4" class="st2" d="M-230.7,406.9L-230.7,406.9l-10.4-2.8l-0.7-7.4h-5h-4.3l1.3,14.6l19.1,5.3l0,0V406.9z"/>
				<path id="Fill-5" class="st3" d="M-209.1,382.7h-2.5h-19.2v9.3h11.5l-1.1,12.1l-10.4,2.8v9.7l19.1-5.3l0.1-1.6l2.2-24.6
					L-209.1,382.7z"/>
				<path id="Fill-6" class="st3" d="M-207.4,363.8h-23.4v5.8v3.5v0h22.5h0l0.2-2.1l0.4-4.7L-207.4,363.8z"/>
			</g>
		</g>
	</g>
</g>
</svg>
