<?xml version="1.0" encoding="UTF-8" standalone="no"?>
<svg width="75px" height="85px" viewBox="0 0 75 85" version="1.1" xmlns="http://www.w3.org/2000/svg" xmlns:xlink="http://www.w3.org/1999/xlink">
    <!-- Generator: Sketch 3.6.1 (26313) - http://www.bohemiancoding.com/sketch -->
    <title>Page 1 Copy</title>
    <desc>Created with Sketch.</desc>
    <defs></defs>
    <g id="Project-Creation" stroke="none" stroke-width="1" fill="none" fill-rule="evenodd">
        <g id="DEV---native-or-html" transform="translate(-683.000000, -406.000000)">
            <g id="Page-1-Copy" transform="translate(683.000000, 406.000000)">
                <path d="M0,0.256617825 L6.78202417,76.3218595 L37.2133082,84.7702432 L67.7301057,76.30979 L74.5193202,0.256617825 L0,0.256617825 Z" id="Fill-1" fill="#545353"></path>
                <path d="M61.9181858,71.4668444 L67.7202704,6.47599849 L37.2597115,6.47599849 L37.2597115,78.3030529 L61.9181858,71.4668444 Z" id="Fill-2" fill="#C3C2C2"></path>
                <path d="M37.2596088,44.0165695 L37.2596088,34.6876269 L24.9153489,34.6876269 L24.0625242,25.1339864 L37.2596088,25.1339864 L37.2596088,15.8050438 L37.2275091,15.8050438 L13.8668897,15.8050438 L14.0895332,18.3077931 L16.3829924,44.0165695 L37.2596088,44.0165695 Z" id="Fill-3" fill="#F0F0F0"></path>
                <path d="M37.2596088,58.9158625 L37.2185211,58.9269048 L26.8292613,56.1211344 L26.1651828,48.6809381 L21.1165423,48.6809381 L16.8002885,48.6809381 L18.1071314,63.3284154 L37.2164668,68.6341103 L37.2596088,68.6220408 L37.2596088,58.9158625 Z" id="Fill-4" fill="#F0F0F0"></path>
                <path d="M58.912858,34.6876012 L56.3990665,34.6876012 L37.2275861,34.6876012 L37.2275861,44.0165438 L48.7151692,44.0165438 L47.6317402,56.1150483 L37.2275861,58.9239003 L37.2275861,68.6290514 L56.3518157,63.3282356 L56.492284,61.7525257 L58.6850785,37.1924048 L58.912858,34.6876012 Z" id="Fill-5" fill="#FFFFFF"></path>
                <path d="M60.5970906,15.8049668 L37.2274834,15.8049668 L37.2274834,21.5988338 L37.2274834,25.1118248 L37.2274834,25.1339094 L59.731426,25.1339094 L59.7614713,25.1339094 L59.9481631,23.0374139 L60.3734199,18.307716 L60.5970906,15.8049668 Z" id="Fill-6" fill="#FFFFFF"></path>
            </g>
        </g>
    </g>
</svg>