<?xml version="1.0" encoding="UTF-8" standalone="no"?>
<svg width="83px" height="171px" viewBox="0 0 83 171" version="1.1" xmlns="http://www.w3.org/2000/svg" xmlns:xlink="http://www.w3.org/1999/xlink">
    <!-- Generator: Sketch 3.6.1 (26313) - http://www.bohemiancoding.com/sketch -->
    <title>Group 2</title>
    <desc>Created with Sketch.</desc>
    <defs>
        <path id="path-1" d="M0,0 L81.1672206,0 L81.1672206,169 L0,169 L0,0 Z"></path>
    </defs>
    <g id="Project-Creation" stroke="none" stroke-width="1" fill="none" fill-rule="evenodd">
        <g id="DEV---native-or-html" transform="translate(-929.000000, -372.000000)">
            <g id="Group-2" transform="translate(930.000000, 373.000000)">
                <g id="Group">
                    <g id="Page-1-Copy-3" transform="translate(19.500000, 59.566667)">
                        <path d="M0,0.150549124 L3.97878751,44.7754909 L21.8318075,49.731876 L39.7349954,44.7684102 L43.7180012,0.150549124 L0,0.150549124 Z" id="Fill-1" fill="#545353"></path>
                        <path d="M36.3253357,41.9272154 L39.7292253,3.79925245 L21.8590307,3.79925245 L21.8590307,45.937791 L36.3253357,41.9272154 Z" id="Fill-2" fill="#C3C2C2"></path>
                        <path d="M21.8589705,25.8230541 L21.8589705,20.3500744 L14.6170047,20.3500744 L14.1166808,14.745272 L21.8589705,14.745272 L21.8589705,9.27229237 L21.8401387,9.27229237 L8.13524197,9.27229237 L8.2658595,10.7405719 L9.61135557,25.8230541 L21.8589705,25.8230541 Z" id="Fill-3" fill="#F0F0F0"></path>
                        <path d="M21.8589705,34.5639727 L21.8348657,34.5704508 L15.7398333,32.9243989 L15.3502406,28.5594837 L12.3883715,28.5594837 L9.85616926,28.5594837 L10.6228504,37.1526704 L21.8336605,40.2653447 L21.8589705,40.2582639 L21.8589705,34.5639727 Z" id="Fill-4" fill="#F0F0F0"></path>
                        <path d="M34.56221,20.3500594 L33.0874523,20.3500594 L21.8401838,20.3500594 L21.8401838,25.823039 L28.5795659,25.823039 L27.9439542,32.9208284 L21.8401838,34.5686882 L21.8401838,40.2623768 L33.0597319,37.1525649 L33.1421399,36.2281484 L34.4285794,21.8195442 L34.56221,20.3500594 Z" id="Fill-5" fill="#FFFFFF"></path>
                        <path d="M35.5502932,9.27224717 L21.8401236,9.27224717 L21.8401236,12.6713159 L21.8401236,14.7322705 L21.8401236,14.7452268 L35.0424366,14.7452268 L35.0600632,14.7452268 L35.169589,13.5152828 L35.419073,10.7405267 L35.5502932,9.27224717 Z" id="Fill-6" fill="#FFFFFF"></path>
                    </g>
                    <g id="Page-1-Copy-2">
                        <path d="M68.1194265,168.378676 L13.0477941,168.378676 C6.21323529,168.378676 0.621323529,162.786765 0.621323529,155.952206 L0.621323529,13.0477941 C0.621323529,6.21323529 6.21323529,0.621323529 13.0477941,0.621323529 L68.1194265,0.621323529 C74.9539853,0.621323529 80.5458971,6.21323529 80.5458971,13.0477941 L80.5458971,155.952206 C80.5458971,162.786765 74.9539853,168.378676 68.1194265,168.378676 L68.1194265,168.378676 Z" id="Stroke-1" stroke="#666666" stroke-width="2"></path>
                        <mask id="mask-2" fill="white">
                            <use xlink:href="#path-1"></use>
                        </mask>
                        <g id="Clip-4"></g>
                        <path d="M75.2646471,144.674563 L6.91905882,144.674563 L6.91905882,24.3602316 L75.2646471,24.3602316 L75.2646471,144.674563 Z" id="Stroke-3" stroke="#666666" stroke-width="2" mask="url(#mask-2)"></path>
                        <path d="M46.3591853,17.4524187 L35.077814,17.4524187 C33.912211,17.4524187 32.9584794,16.4986871 32.9584794,15.3324629 C32.9584794,14.1668599 33.912211,13.212507 35.077814,13.212507 L46.3591853,13.212507 C47.5247882,13.212507 48.4791412,14.1668599 48.4791412,15.3324629 C48.4791412,16.4986871 47.5247882,17.4524187 46.3591853,17.4524187 L46.3591853,17.4524187 Z" id="Stroke-5" stroke="#666666" stroke-width="2" mask="url(#mask-2)"></path>
                        <path d="M39.4467125,9.23112794 C39.4467125,8.43707647 40.0904037,7.79338529 40.8844551,7.79338529 C41.6785066,7.79338529 42.3221978,8.43707647 42.3221978,9.23112794 C42.3221978,10.0251794 41.6785066,10.6688706 40.8844551,10.6688706 C40.0904037,10.6688706 39.4467125,10.0251794 39.4467125,9.23112794 L39.4467125,9.23112794 Z" id="Stroke-6" stroke="#666666" stroke-width="2" mask="url(#mask-2)"></path>
                        <path d="M34.0501449,156.790496 C34.0501449,152.901632 37.2027404,149.749036 41.0916044,149.749036 C44.9810897,149.749036 48.1336853,152.901632 48.1336853,156.790496 C48.1336853,160.67936 44.9810897,163.831955 41.0916044,163.831955 C37.2027404,163.831955 34.0501449,160.67936 34.0501449,156.790496 L34.0501449,156.790496 Z" id="Stroke-7" stroke="#666666" stroke-width="2" mask="url(#mask-2)"></path>
                    </g>
                </g>
                <g id="Imported-Layers-+-Path-8-Copy-3" transform="translate(29.000000, 102.000000)">
                    <g id="Imported-Layers" fill="#00AEFF">
                        <path d="M11.4782609,6.26086957 L12.5217391,6.26086957 L12.5217391,17.7391304 L11.4782609,17.7391304 L11.4782609,6.26086957 Z" id="Fill-1"></path>
                        <path d="M6.26086957,11.4782609 L17.7391304,11.4782609 L17.7391304,12.5217391 L6.26086957,12.5217391 L6.26086957,11.4782609 Z" id="Fill-2"></path>
                        <path d="M12,24 C5.38330435,24 0,18.6166957 0,12 C0,5.38330435 5.38330435,0 12,0 C18.6166957,0 24,5.38330435 24,12 C24,18.6166957 18.6166957,24 12,24 L12,24 Z" id="Fill-3"></path>
                    </g>
                    <path d="M8,12 L11.2,16 L16,8" id="Path-8" stroke="#FFFFFF" stroke-width="2" stroke-linecap="round"></path>
                </g>
            </g>
        </g>
    </g>
</svg>