<?xml version="1.0" encoding="UTF-8" standalone="no"?>
<svg width="68px" height="68px" viewBox="0 0 68 68" version="1.1" xmlns="http://www.w3.org/2000/svg" xmlns:xlink="http://www.w3.org/1999/xlink" xmlns:sketch="http://www.bohemiancoding.com/sketch/ns">
    <!-- Generator: Sketch 3.3.3 (12081) - http://www.bohemiancoding.com/sketch -->
    <title>icon-outlined</title>
    <desc>Created with Sketch.</desc>
    <defs></defs>
    <g id="Page-1" stroke="none" stroke-width="1" fill="none" fill-rule="evenodd" sketch:type="MSPage">
        <g id="icon-outlined" sketch:type="MSArtboardGroup" fill="#7F7F7F">
            <path d="M64.776,67.829 L4,67.829 L4.058,66.774 C4.553,57.75 11.872,54.849 17.752,52.519 C21.524,51.025 24.787,49.731 25.688,47.306 C25.826,46.022 25.826,44.88 25.826,43.673 C25.826,42.814 25.691,41.613 25.07,40.611 C24.909,40.415 24.813,40.288 24.789,40.255 C24.721,40.165 24.671,40.065 24.637,39.962 C23.591,38.323 22.756,36.209 22.393,34.293 C21.25,33.805 20.067,32.324 19.66,29.297 C19.509,27.528 20.143,26.286 20.767,25.586 C18.865,17.699 19.372,11.769 22.275,7.952 C24.681,4.789 28.696,3.123 34.208,3 C37.876,3 40.585,4.013 41.929,5.863 C44.522,6.333 46.475,7.628 47.74,9.719 C50.877,14.901 48.666,23.143 47.905,25.574 C48.599,26.312 49.106,27.577 48.971,29.244 C48.65,32.794 47.216,33.943 46.228,34.311 C45.852,36.293 45.006,38.485 43.996,40.094 C43.963,40.205 43.911,40.311 43.838,40.41 C43.814,40.442 43.714,40.575 43.547,40.78 C43.047,41.599 42.799,42.4 42.799,43.208 C42.799,44.551 42.799,45.715 42.932,47.297 C43.95,49.716 47.215,51.004 50.985,52.492 C56.882,54.82 64.22,57.716 64.718,66.774 L64.776,67.829 L64.776,67.829 Z M6.151,65.829 L62.624,65.829 C61.722,58.881 55.895,56.581 50.251,54.352 C47.887,53.42 45.599,52.516 43.842,51.281 C43.263,52.555 40.778,57.022 34.387,57.022 C28.234,57.022 25.598,52.769 24.87,51.297 C23.136,52.537 20.85,53.443 18.489,54.379 C12.861,56.608 7.052,58.911 6.151,65.829 L6.151,65.829 Z M26.422,49.907 C26.465,49.973 26.502,50.045 26.53,50.122 C26.603,50.318 28.417,55.022 34.387,55.022 C40.343,55.022 42.023,50.483 42.092,50.29 C42.139,50.158 42.21,50.042 42.3,49.945 C41.751,49.342 41.312,48.665 41.015,47.889 L40.953,47.62 C40.811,46.005 40.8,44.827 40.799,43.526 C39.108,44.904 36.851,46.216 34.387,46.216 C31.884,46.216 29.558,44.824 27.822,43.383 C27.825,43.479 27.826,43.576 27.826,43.673 C27.826,44.916 27.826,46.202 27.662,47.645 L27.615,47.854 C27.352,48.628 26.944,49.305 26.422,49.907 L26.422,49.907 Z M26.682,39.42 C27.663,40.595 30.961,44.216 34.387,44.216 C37.795,44.216 40.956,40.766 41.928,39.597 C41.966,39.537 42.006,39.476 42.046,39.416 C43.14,37.851 44.086,35.362 44.36,33.345 L44.478,32.48 L45.351,32.48 C45.881,32.48 46.752,31.573 46.978,29.074 C47.102,27.546 46.468,26.902 46.291,26.814 L45.498,26.419 L45.796,25.583 C46.978,22.273 48.547,14.914 46.029,10.754 C45.004,9.058 43.422,8.083 41.195,7.77 L40.714,7.703 L40.47,7.282 C39.628,5.832 37.354,5 34.23,5 C29.38,5.108 25.886,6.509 23.867,9.163 C21.28,12.563 20.938,18.119 22.849,25.674 L23.022,26.357 L22.437,26.75 C22.195,26.913 21.53,27.689 21.648,29.08 C22.02,31.845 23.042,32.475 23.274,32.48 L24.13,32.5 L24.265,33.348 C24.56,35.574 25.63,37.911 26.559,39.24 C26.601,39.299 26.642,39.359 26.682,39.42 L26.682,39.42 Z" id="Imported-Layers" sketch:type="MSShapeGroup"></path>
        </g>
    </g>
</svg>