<?xml version="1.0" encoding="utf-8"?>
<!-- Generator: Adobe Illustrator 19.1.0, SVG Export Plug-In . SVG Version: 6.00 Build 0)  -->
<!DOCTYPE svg PUBLIC "-//W3C//DTD SVG 1.1//EN" "http://www.w3.org/Graphics/SVG/1.1/DTD/svg11.dtd">
<svg version="1.1" id="Layer_1" xmlns:sketch="http://www.bohemiancoding.com/sketch/ns"
	 xmlns="http://www.w3.org/2000/svg" xmlns:xlink="http://www.w3.org/1999/xlink" x="0px" y="0px" viewBox="-268 351 75 92"
	 style="enable-background:new -268 351 75 92;" xml:space="preserve">
<style type="text/css">
	.st0{fill:none;stroke:#706E6E;stroke-width:2;}
	.st1{fill:#00AEFF;}
	.st2{fill:none;stroke:#FFFFFF;stroke-width:2;stroke-linecap:round;}
</style>
<title>apple - selected</title>
<desc>Created with Sketch.</desc>
<g id="Project-Creation" sketch:type="MSPage">
	<g id="project-creation---setup" transform="translate(-1074.000000, -760.000000)" sketch:type="MSArtboardGroup">
		<g id="apple---selected" transform="translate(1075.000000, 762.000000)" sketch:type="MSLayerGroup">
			<path id="Shape-Copy-2" sketch:type="MSShapeGroup" class="st0" d="M-207.5,398.3c-0.1-11.3,9.2-16.7,9.6-16.9
				c-5.2-7.7-13.4-8.7-16.3-8.8c-6.9-0.7-13.5,4.1-17,4.1c-3.5,0-8.9-4-14.7-3.9c-7.6,0.1-14.5,4.4-18.4,11.2
				c-7.8,13.6-2,33.8,5.6,44.8c3.7,5.4,8.2,11.5,14,11.3c5.6-0.2,7.8-3.6,14.6-3.6c6.8,0,8.7,3.6,14.7,3.5
				c6.1-0.1,9.9-5.5,13.6-10.9c4.3-6.3,6.1-12.3,6.2-12.7C-195.7,416.2-207.4,411.8-207.5,398.3L-207.5,398.3z M-218.7,365.2
				c3.1-3.8,5.2-9,4.6-14.2c-4.5,0.2-9.9,3-13.1,6.7c-2.9,3.3-5.4,8.7-4.7,13.8C-226.9,371.9-221.8,369-218.7,365.2L-218.7,365.2z"
				/>
			<g id="Imported-Layers-_x2B_-Path-8-Copy-3" transform="translate(24.000000, 42.000000)" sketch:type="MSShapeGroup">
				<g id="Imported-Layers">
					<path id="Fill-1" class="st1" d="M-256.5,357.3h1v11.5h-1V357.3z"/>
					<path id="Fill-2" class="st1" d="M-261.7,362.5h11.5v1h-11.5V362.5z"/>
					<path id="Fill-3" class="st1" d="M-256,375c-6.6,0-12-5.4-12-12s5.4-12,12-12s12,5.4,12,12S-249.4,375-256,375L-256,375z"/>
				</g>
				<path id="Path-8" class="st2" d="M-260,363l3.2,4l4.8-8"/>
			</g>
		</g>
	</g>
</g>
</svg>
