<?xml version="1.0" encoding="utf-8"?>
<!-- Generator: Adobe Illustrator 19.1.0, SVG Export Plug-In . SVG Version: 6.00 Build 0)  -->
<!DOCTYPE svg PUBLIC "-//W3C//DTD SVG 1.1//EN" "http://www.w3.org/Graphics/SVG/1.1/DTD/svg11.dtd">
<svg version="1.1" id="Layer_1" xmlns:sketch="http://www.bohemiancoding.com/sketch/ns"
	 xmlns="http://www.w3.org/2000/svg" xmlns:xlink="http://www.w3.org/1999/xlink" x="0px" y="0px" viewBox="-268 351 75 92"
	 style="enable-background:new -268 351 75 92;" xml:space="preserve">
<style type="text/css">
	.st0{fill:none;stroke:#706E6E;stroke-width:2;}
</style>
<title>apple</title>
<desc>Created with Sketch.</desc>
<g id="Project-Creation" sketch:type="MSPage">
	<g id="project-creation---setup" transform="translate(-1074.000000, -649.000000)" sketch:type="MSArtboardGroup">
		<path id="apple" sketch:type="MSShapeGroup" class="st0" d="M867.5,1049.3c-0.1-11.3,9.2-16.7,9.6-16.9
			c-5.2-7.7-13.4-8.7-16.3-8.8c-6.9-0.7-13.5,4.1-17,4.1c-3.5,0-8.9-4-14.7-3.9c-7.6,0.1-14.5,4.4-18.4,11.2
			c-7.8,13.6-2,33.8,5.6,44.8c3.7,5.4,8.2,11.5,14,11.3c5.6-0.2,7.8-3.6,14.6-3.6c6.8,0,8.7,3.6,14.7,3.5c6.1-0.1,9.9-5.5,13.6-10.9
			c4.3-6.3,6.1-12.3,6.2-12.7C879.3,1067.2,867.6,1062.8,867.5,1049.3L867.5,1049.3z M856.3,1016.2c3.1-3.8,5.2-9,4.6-14.2
			c-4.5,0.2-9.9,3-13.1,6.7c-2.9,3.3-5.4,8.7-4.7,13.8C848.1,1022.9,853.2,1020,856.3,1016.2L856.3,1016.2z"/>
	</g>
</g>
</svg>
