<?xml version="1.0" encoding="UTF-8" standalone="no"?>
<svg width="171px" height="83px" viewBox="0 0 171 83" version="1.1" xmlns="http://www.w3.org/2000/svg" xmlns:xlink="http://www.w3.org/1999/xlink" xmlns:sketch="http://www.bohemiancoding.com/sketch/ns">
    <!-- Generator: Sketch 3.4.2 (15857) - http://www.bohemiancoding.com/sketch -->
    <title>landscape</title>
    <desc>Created with Sketch.</desc>
    <defs>
        <path id="path-1" d="M1.13686838e-13,3.41060513e-13 L81.1672206,3.41060513e-13 L81.1672206,169 L1.13686838e-13,169 L1.13686838e-13,3.41060513e-13 Z"></path>
    </defs>
    <g id="Page-1" stroke="none" stroke-width="1" fill="none" fill-rule="evenodd" sketch:type="MSPage">
        <g id="landscape" sketch:type="MSArtboardGroup">
            <g id="Page-1-Copy" sketch:type="MSLayerGroup" transform="translate(85.500000, 42.000000) rotate(-270.000000) translate(-85.500000, -42.000000) translate(44.500000, -42.500000)">
                <path d="M68.1194265,168.378676 L13.0477941,168.378676 C6.21323529,168.378676 0.621323529,162.786765 0.621323529,155.952206 L0.621323529,13.0477941 C0.621323529,6.21323529 6.21323529,0.621323529 13.0477941,0.621323529 L68.1194265,0.621323529 C74.9539853,0.621323529 80.5458971,6.21323529 80.5458971,13.0477941 L80.5458971,155.952206 C80.5458971,162.786765 74.9539853,168.378676 68.1194265,168.378676 L68.1194265,168.378676 Z" id="Stroke-1" stroke="#666666" stroke-width="2" sketch:type="MSShapeGroup"></path>
                <mask id="mask-2" sketch:name="Clip 4" fill="white">
                    <use xlink:href="#path-1"></use>
                </mask>
                <g id="Clip-4"></g>
                <path d="M75.2646471,144.674562 L6.91905882,144.674562 L6.91905882,24.3602316 L75.2646471,24.3602316 L75.2646471,144.674562 Z" id="Stroke-3" stroke="#666666" stroke-width="2" sketch:type="MSShapeGroup" mask="url(#mask-2)"></path>
                <path d="M46.3591853,17.4524187 L35.077814,17.4524187 C33.912211,17.4524187 32.9584794,16.4986871 32.9584794,15.3324629 C32.9584794,14.1668599 33.912211,13.212507 35.077814,13.212507 L46.3591853,13.212507 C47.5247882,13.212507 48.4791412,14.1668599 48.4791412,15.3324629 C48.4791412,16.4986871 47.5247882,17.4524187 46.3591853,17.4524187 L46.3591853,17.4524187 Z" id="Stroke-5" stroke="#666666" stroke-width="2" sketch:type="MSShapeGroup" mask="url(#mask-2)"></path>
                <path d="M39.4467125,9.23112794 C39.4467125,8.43707647 40.0904037,7.79338529 40.8844551,7.79338529 C41.6785066,7.79338529 42.3221978,8.43707647 42.3221978,9.23112794 C42.3221978,10.0251794 41.6785066,10.6688706 40.8844551,10.6688706 C40.0904037,10.6688706 39.4467125,10.0251794 39.4467125,9.23112794 L39.4467125,9.23112794 Z" id="Stroke-6" stroke="#666666" stroke-width="2" sketch:type="MSShapeGroup" mask="url(#mask-2)"></path>
                <path d="M34.0501449,156.790496 C34.0501449,152.901632 37.2027404,149.749036 41.0916044,149.749036 C44.9810897,149.749036 48.1336853,152.901632 48.1336853,156.790496 C48.1336853,160.67936 44.9810897,163.831955 41.0916044,163.831955 C37.2027404,163.831955 34.0501449,160.67936 34.0501449,156.790496 L34.0501449,156.790496 Z" id="Stroke-7" stroke="#666666" stroke-width="2" sketch:type="MSShapeGroup" mask="url(#mask-2)"></path>
            </g>
        </g>
    </g>
</svg>