<?xml version="1.0" encoding="UTF-8" standalone="no"?>
<svg width="73px" height="73px" viewBox="0 0 73 73" version="1.1" xmlns="http://www.w3.org/2000/svg" xmlns:xlink="http://www.w3.org/1999/xlink">
    <!-- Generator: Sketch 3.7.1 (28215) - http://www.bohemiancoding.com/sketch -->
    <title>Group 5</title>
    <desc>Created with Sketch.</desc>
    <defs>
        <rect id="path-1" x="25.78125" y="5.859375" width="23.4375" height="23.4375"></rect>
        <mask id="mask-2" maskContentUnits="userSpaceOnUse" maskUnits="objectBoundingBox" x="0" y="0" width="23.4375" height="23.4375" fill="white">
            <use xlink:href="#path-1"></use>
        </mask>
        <rect id="path-3" x="45.703125" y="25.78125" width="23.4375" height="23.4375"></rect>
        <mask id="mask-4" maskContentUnits="userSpaceOnUse" maskUnits="objectBoundingBox" x="0" y="0" width="23.4375" height="23.4375" fill="white">
            <use xlink:href="#path-3"></use>
        </mask>
        <rect id="path-5" x="5.859375" y="25.78125" width="23.4375" height="23.4375"></rect>
        <mask id="mask-6" maskContentUnits="userSpaceOnUse" maskUnits="objectBoundingBox" x="0" y="0" width="23.4375" height="23.4375" fill="white">
            <use xlink:href="#path-5"></use>
        </mask>
        <rect id="path-7" x="25.78125" y="45.703125" width="23.4375" height="23.4375"></rect>
        <mask id="mask-8" maskContentUnits="userSpaceOnUse" maskUnits="objectBoundingBox" x="0" y="0" width="23.4375" height="23.4375" fill="white">
            <use xlink:href="#path-7"></use>
        </mask>
    </defs>
    <g id="Project-Creation" stroke="none" stroke-width="1" fill="none" fill-rule="evenodd">
        <g id="Project-Creation---platforms" transform="translate(-1033.000000, -333.000000)">
            <g id="Group-5" transform="translate(1032.000000, 332.000000)">
                <g id="Group-2" stroke="#706E6E" stroke-width="4">
                    <use id="Rectangle-142" mask="url(#mask-2)" transform="translate(37.500000, 17.578125) rotate(-315.000000) translate(-37.500000, -17.578125) " xlink:href="#path-1"></use>
                    <use id="Rectangle-142" mask="url(#mask-4)" transform="translate(57.421875, 37.500000) rotate(-315.000000) translate(-57.421875, -37.500000) " xlink:href="#path-3"></use>
                    <use id="Rectangle-142" mask="url(#mask-6)" transform="translate(17.578125, 37.500000) rotate(-315.000000) translate(-17.578125, -37.500000) " xlink:href="#path-5"></use>
                    <use id="Rectangle-142" mask="url(#mask-8)" transform="translate(37.500000, 57.421875) rotate(-315.000000) translate(-37.500000, -57.421875) " xlink:href="#path-7"></use>
                </g>
                <circle id="Oval-40" fill="#FFFFFF" cx="38" cy="39" r="14"></circle>
                <g id="Imported-Layers-+-Path-8-Copy-3" transform="translate(26.000000, 27.000000)">
                    <g id="Imported-Layers" fill="#00AEFF">
                        <polygon id="Fill-1" points="11.4782609 6.26086957 12.5217391 6.26086957 12.5217391 17.7391304 11.4782609 17.7391304"></polygon>
                        <polygon id="Fill-2" points="6.26086957 11.4782609 17.7391304 11.4782609 17.7391304 12.5217391 6.26086957 12.5217391"></polygon>
                        <path d="M12,24 C5.38330435,24 0,18.6166957 0,12 C0,5.38330435 5.38330435,0 12,0 C18.6166957,0 24,5.38330435 24,12 C24,18.6166957 18.6166957,24 12,24 L12,24 Z" id="Fill-3"></path>
                    </g>
                    <polyline id="Path-8" stroke="#FFFFFF" stroke-width="2" stroke-linecap="round" points="8 12 11.2 16 16 8"></polyline>
                </g>
            </g>
        </g>
    </g>
</svg>