<?xml version="1.0" encoding="UTF-8" standalone="no"?>
<svg width="156px" height="22px" viewBox="0 0 156 22" version="1.1" xmlns="http://www.w3.org/2000/svg" xmlns:xlink="http://www.w3.org/1999/xlink" xmlns:sketch="http://www.bohemiancoding.com/sketch/ns">
    <!-- Generator: Sketch 3.3.3 (12081) - http://www.bohemiancoding.com/sketch -->
    <title>SANS</title>
    <desc>Created with Sketch.</desc>
    <defs></defs>
    <g id="Page-1" stroke="none" stroke-width="1" fill="none" fill-rule="evenodd" sketch:type="MSPage">
        <g id="SANS" sketch:type="MSLayerGroup" fill="#333045">
            <path d="M8.129,18.93 C10.769,18.93 12.059,17.46 12.298,15.9 C12.479,13.681 10.649,12.63 8.788,12.21 L6.118,11.551 C1.74,10.44 1.079,7.95 1.079,6.15 C1.079,2.671 4.259,0.331 7.769,0.331 C11.549,0.331 14.429,2.671 14.429,6.391 L11.639,6.391 C11.639,4.32 9.988,3.001 7.738,3.001 C5.729,3.001 3.869,4.23 3.869,6.121 C3.869,7.02 4.198,8.37 6.809,9.001 L9.509,9.66 C13.378,10.65 15.448,12.841 15.029,16.141 C14.668,19.11 12.179,21.54 8.129,21.54 C3.899,21.54 0.899,18.51 0.899,15.27 L3.689,15.27 C3.719,17.07 5.519,18.93 8.129,18.93" id="Fill-6" sketch:type="MSShapeGroup"></path>
            <path d="M21.425,15.99 L19.415,21.24 L16.445,21.24 L24.305,0.571 L27.305,0.571 L35.135,21.24 L32.194,21.24 L30.185,15.99 L21.425,15.99 L21.425,15.99 Z M29.225,13.471 L25.805,4.291 L22.385,13.471 L29.225,13.471 L29.225,13.471 Z" id="Fill-7" sketch:type="MSShapeGroup"></path>
            <path d="M50.191,21.24 L40.771,5.671 L40.771,21.24 L37.982,21.24 L37.982,0.571 L40.741,0.571 L50.07,16.02 L50.07,0.571 L52.86,0.571 L52.86,21.24 L50.191,21.24" id="Fill-8" sketch:type="MSShapeGroup"></path>
            <path d="M64.426,18.93 C67.066,18.93 68.356,17.46 68.595,15.9 C68.775,13.681 66.945,12.63 65.085,12.21 L62.415,11.551 C58.036,10.44 57.376,7.95 57.376,6.15 C57.376,2.671 60.556,0.331 64.066,0.331 C67.846,0.331 70.726,2.671 70.726,6.391 L67.936,6.391 C67.936,4.32 66.285,3.001 64.035,3.001 C62.025,3.001 60.166,4.23 60.166,6.121 C60.166,7.02 60.495,8.37 63.106,9.001 L65.806,9.66 C69.675,10.65 71.745,12.841 71.325,16.141 C70.965,19.11 68.476,21.54 64.426,21.54 C60.195,21.54 57.195,18.51 57.195,15.27 L59.985,15.27 C60.016,17.07 61.816,18.93 64.426,18.93" id="Fill-9" sketch:type="MSShapeGroup"></path>
            <path d="M89.416,18.93 C92.056,18.93 93.346,17.46 93.585,15.9 C93.766,13.681 91.936,12.63 90.075,12.21 L87.405,11.551 C83.027,10.44 82.366,7.95 82.366,6.15 C82.366,2.671 85.546,0.331 89.056,0.331 C92.836,0.331 95.716,2.671 95.716,6.391 L92.926,6.391 C92.926,4.32 91.275,3.001 89.025,3.001 C87.016,3.001 85.156,4.23 85.156,6.121 C85.156,7.02 85.485,8.37 88.096,9.001 L90.796,9.66 C94.665,10.65 96.735,12.841 96.316,16.141 C95.955,19.11 93.466,21.54 89.416,21.54 C85.186,21.54 82.186,18.51 82.186,15.27 L84.976,15.27 C85.006,17.07 86.806,18.93 89.416,18.93" id="Fill-10" sketch:type="MSShapeGroup"></path>
            <path d="M112.743,0.571 L112.743,3.181 L103.293,3.181 L103.293,9.78 L111.543,9.78 L111.543,12.391 L103.293,12.391 L103.293,18.63 L113.043,18.63 L113.043,21.24 L100.504,21.24 L100.504,0.571 L112.743,0.571" id="Fill-11" sketch:type="MSShapeGroup"></path>
            <path d="M131.175,21.24 L127.784,21.24 L122.444,13.5 L119.805,13.5 L119.805,21.24 L116.985,21.24 L116.985,0.571 L124.935,0.571 C129.284,0.571 131.055,3.811 131.055,7.051 C131.055,10.11 129.524,13.08 125.654,13.41 L131.175,21.24 L131.175,21.24 Z M119.805,3.181 L119.805,10.891 L124.725,10.891 C127.244,10.891 128.175,8.971 128.175,7.051 C128.175,5.161 127.244,3.181 124.845,3.181 L119.805,3.181 L119.805,3.181 Z" id="Fill-12" sketch:type="MSShapeGroup"></path>
            <path d="M135.372,0.571 L138.161,0.571 L138.161,21.24 L135.372,21.24 L135.372,0.571 Z" id="Fill-13" sketch:type="MSShapeGroup"></path>
            <path d="M155.613,0.571 L155.613,3.181 L146.342,3.181 L146.342,9.78 L153.693,9.78 L153.693,12.391 L146.342,12.391 L146.342,21.24 L143.553,21.24 L143.553,0.571 L155.613,0.571" id="Fill-14" sketch:type="MSShapeGroup"></path>
        </g>
    </g>
</svg>