<?xml version="1.0" encoding="UTF-8" standalone="no"?>
<svg width="84px" height="22px" viewBox="0 0 84 22" version="1.1" xmlns="http://www.w3.org/2000/svg" xmlns:xlink="http://www.w3.org/1999/xlink" xmlns:sketch="http://www.bohemiancoding.com/sketch/ns">
    <!-- Generator: Sketch 3.3.3 (12081) - http://www.bohemiancoding.com/sketch -->
    <title>SERIF</title>
    <desc>Created with Sketch.</desc>
    <defs></defs>
    <g id="Page-1" stroke="none" stroke-width="1" fill="none" fill-rule="evenodd" sketch:type="MSPage">
        <g id="SERIF" sketch:type="MSLayerGroup" fill="#333045">
            <path d="M0.394,20.593 L0.394,14.206 L1.126,14.206 C1.956,18.366 3.924,20.446 7.029,20.446 C8.426,20.446 9.507,20.049 10.275,19.253 C11.04,18.457 11.424,17.565 11.424,16.579 C11.424,15.583 11.087,14.748 10.413,14.074 C9.739,13.41 8.509,12.697 6.722,11.936 C5.13,11.252 3.929,10.654 3.118,10.142 C2.308,9.629 1.675,8.962 1.222,8.142 C0.767,7.321 0.54,6.447 0.54,5.52 C0.54,4.103 1.03,2.925 2.013,1.982 C2.993,1.04 4.236,0.568 5.74,0.568 C6.58,0.568 7.371,0.705 8.113,0.979 C8.856,1.252 9.617,1.818 10.399,2.678 C10.848,2.141 11.102,1.56 11.16,0.935 L11.805,0.935 L11.805,6.135 L11.16,6.135 C10.789,4.621 10.132,3.43 9.191,2.561 C8.247,1.691 7.156,1.257 5.916,1.257 C4.734,1.257 3.867,1.577 3.315,2.217 C2.764,2.856 2.488,3.557 2.488,4.318 C2.488,5.236 2.835,6.013 3.529,6.647 C4.212,7.292 5.447,8.015 7.234,8.815 C8.944,9.577 10.187,10.19 10.962,10.654 C11.739,11.118 12.361,11.76 12.83,12.58 C13.299,13.4 13.533,14.348 13.533,15.422 C13.533,17.121 12.967,18.503 11.834,19.567 C10.701,20.632 9.188,21.164 7.293,21.164 C5.115,21.164 3.299,20.329 1.844,18.659 C1.522,19.118 1.282,19.763 1.126,20.593 L0.394,20.593" id="Fill-1" sketch:type="MSShapeGroup"></path>
            <path d="M31.444,14.616 L32.147,14.616 L31.722,20.798 L15.272,20.798 L15.272,20.124 L15.682,20.124 C16.668,20.124 17.305,19.992 17.593,19.729 C17.881,19.465 18.064,19.131 18.143,18.726 C18.221,18.32 18.26,17.287 18.26,15.627 L18.26,5.886 C18.26,4.372 18.218,3.376 18.136,2.897 C18.052,2.419 17.861,2.085 17.564,1.894 C17.266,1.704 16.639,1.608 15.682,1.608 L15.682,0.935 L29.876,0.935 L30.345,5.886 L29.656,5.886 C29.344,4.499 28.96,3.516 28.507,2.935 C28.052,2.354 27.513,1.987 26.888,1.836 C26.263,1.685 25.257,1.608 23.87,1.608 L21.116,1.608 L21.116,9.943 L23.226,9.943 C24.192,9.943 24.868,9.86 25.255,9.694 C25.64,9.528 25.894,9.277 26.017,8.94 C26.138,8.603 26.199,7.946 26.199,6.97 L26.888,6.97 L26.888,13.767 L26.199,13.767 C26.199,12.663 26.107,11.924 25.921,11.548 C25.736,11.172 25.464,10.928 25.109,10.815 C24.751,10.703 24.149,10.647 23.299,10.647 L21.116,10.647 L21.116,15.349 C21.116,17.702 21.268,19.087 21.57,19.502 C21.873,19.917 22.689,20.124 24.017,20.124 L25.496,20.124 C26.541,20.124 27.401,19.99 28.074,19.722 C28.748,19.453 29.39,18.901 30.001,18.066 C30.611,17.231 31.092,16.081 31.444,14.616" id="Fill-2" sketch:type="MSShapeGroup"></path>
            <path d="M55.229,20.798 L49.882,20.798 C48.935,20.134 47.484,18.396 45.531,15.583 C44.906,14.685 44.257,13.823 43.583,12.998 C42.909,12.173 42.445,11.67 42.191,11.489 C41.938,11.309 41.542,11.218 41.005,11.218 L40.214,11.218 L40.214,15.627 C40.214,17.189 40.251,18.213 40.323,18.696 C40.398,19.18 40.592,19.538 40.909,19.773 C41.227,20.007 41.835,20.124 42.734,20.124 L43.686,20.124 L43.686,20.798 L34.179,20.798 L34.179,20.124 L34.823,20.124 C35.673,20.124 36.261,20.017 36.589,19.802 C36.915,19.587 37.123,19.253 37.211,18.799 C37.299,18.345 37.343,17.287 37.343,15.627 L37.343,5.886 C37.343,4.304 37.299,3.283 37.211,2.824 C37.123,2.365 36.928,2.048 36.625,1.872 C36.322,1.696 35.668,1.608 34.662,1.608 L34.325,1.608 L34.325,0.935 L37.167,0.788 C39.062,0.7 40.566,0.656 41.679,0.656 C43.573,0.656 45.114,0.832 46.3,1.184 C47.487,1.535 48.447,2.111 49.179,2.912 C49.911,3.713 50.277,4.67 50.277,5.783 C50.277,7.082 49.799,8.19 48.842,9.108 C47.885,10.026 46.479,10.598 44.623,10.822 C45.453,11.223 46.791,12.668 48.637,15.158 C50.141,17.18 51.322,18.503 52.182,19.128 C53.041,19.753 54.057,20.085 55.229,20.124 L55.229,20.798 L55.229,20.798 Z M40.214,10.544 C40.947,10.524 41.703,10.495 42.484,10.456 C43.266,10.417 43.944,10.31 44.521,10.134 C45.097,9.958 45.563,9.702 45.919,9.365 C46.275,9.028 46.557,8.586 46.762,8.039 C46.967,7.492 47.07,6.818 47.07,6.018 C47.07,4.621 46.72,3.503 46.023,2.663 C45.323,1.823 43.803,1.403 41.459,1.403 C41.098,1.403 40.683,1.423 40.214,1.462 L40.214,10.544 L40.214,10.544 Z" id="Fill-3" sketch:type="MSShapeGroup"></path>
            <path d="M57.045,1.608 L57.045,0.935 L66.127,0.935 L66.127,1.608 L65.702,1.608 C64.726,1.608 64.086,1.689 63.783,1.851 C63.48,2.012 63.278,2.312 63.175,2.751 C63.073,3.19 63.022,4.235 63.022,5.886 L63.022,15.627 C63.022,17.189 63.058,18.213 63.132,18.696 C63.204,19.18 63.4,19.538 63.718,19.773 C64.034,20.007 64.643,20.124 65.541,20.124 L66.127,20.124 L66.127,20.798 L57.045,20.798 L57.045,20.124 L57.631,20.124 C58.481,20.124 59.068,20.017 59.396,19.802 C59.723,19.587 59.931,19.253 60.019,18.799 C60.107,18.345 60.15,17.287 60.15,15.627 L60.15,5.886 C60.15,4.304 60.107,3.283 60.019,2.824 C59.931,2.365 59.735,2.048 59.433,1.872 C59.13,1.696 58.476,1.608 57.47,1.608 L57.045,1.608" id="Fill-4" sketch:type="MSShapeGroup"></path>
            <path d="M83.742,0.935 L83.903,5.886 L83.215,5.886 C83.078,4.802 82.773,3.906 82.3,3.198 C81.825,2.49 81.33,2.048 80.813,1.872 C80.295,1.696 79.421,1.608 78.191,1.608 L74.309,1.608 L74.309,10.031 L76.169,10.031 C77.37,10.031 78.169,9.829 78.564,9.424 C78.96,9.019 79.157,8.205 79.157,6.984 L79.89,6.984 L79.89,13.986 L79.157,13.986 C79.157,13.137 79.071,12.466 78.901,11.973 C78.73,11.479 78.476,11.143 78.14,10.962 C77.802,10.781 77.146,10.69 76.169,10.69 L74.309,10.69 L74.309,15.627 C74.309,17.189 74.348,18.213 74.426,18.696 C74.504,19.18 74.701,19.538 75.019,19.773 C75.336,20.007 75.949,20.124 76.857,20.124 L77.531,20.124 L77.531,20.798 L68.303,20.798 L68.303,20.124 L68.918,20.124 C69.768,20.124 70.356,20.017 70.683,19.802 C71.01,19.587 71.22,19.253 71.314,18.799 C71.405,18.345 71.452,17.287 71.452,15.627 L71.452,5.886 C71.452,4.304 71.405,3.283 71.314,2.824 C71.22,2.365 71.025,2.048 70.728,1.872 C70.429,1.696 69.777,1.608 68.771,1.608 L68.42,1.608 L68.42,0.935 L83.742,0.935" id="Fill-5" sketch:type="MSShapeGroup"></path>
        </g>
    </g>
</svg>