<?xml version="1.0" encoding="UTF-8" standalone="no"?>
<svg width="68px" height="68px" viewBox="0 0 68 68" version="1.1" xmlns="http://www.w3.org/2000/svg" xmlns:xlink="http://www.w3.org/1999/xlink" xmlns:sketch="http://www.bohemiancoding.com/sketch/ns">
    <!-- Generator: Sketch 3.3.3 (12081) - http://www.bohemiancoding.com/sketch -->
    <title>icon-solid</title>
    <desc>Created with Sketch.</desc>
    <defs></defs>
    <g id="Page-1" stroke="none" stroke-width="1" fill="none" fill-rule="evenodd" sketch:type="MSPage">
        <g id="icon-solid" sketch:type="MSArtboardGroup" fill="#7F7F7F">
            <g id="Imported-Layers" sketch:type="MSLayerGroup" transform="translate(5.000000, 5.000000)">
                <path d="M29.737,41.965 C33.694,41.965 37.194,38.03 38.131,36.881 C38.165,36.828 38.193,36.771 38.228,36.719 C39.307,35.175 40.386,32.545 40.701,30.229 C41.622,30.229 43.016,29.308 43.324,25.913 C43.473,24.054 42.701,22.975 42.087,22.668 C43.631,18.344 46.561,4.915 36.684,3.528 C35.605,1.669 32.982,0.748 29.58,0.748 C15.843,1.055 14.299,11.09 17.229,22.668 C16.772,22.975 15.843,24.054 16.001,25.913 C16.457,29.308 17.851,30.229 18.623,30.229 C18.93,32.545 20.01,35.018 21.089,36.562 C21.114,36.598 21.13,36.64 21.155,36.676 C22.057,37.786 25.72,41.965 29.737,41.965" id="Fill-1" sketch:type="MSShapeGroup"></path>
                <path d="M37.298,44.281 C37.148,42.579 37.148,41.35 37.148,39.956 C37.148,38.79 37.568,37.768 38.131,36.881 C37.194,38.03 33.694,41.965 29.737,41.965 C25.72,41.965 22.057,37.786 21.155,36.676 C21.872,37.74 22.176,39.081 22.176,40.421 C22.176,41.657 22.176,42.895 22.018,44.281 C19.545,51.535 1.177,49.526 0.405,63.578 L59.068,63.578 C58.297,49.526 40.079,51.535 37.298,44.281 L37.298,44.281 Z M29.737,52.772 C22.947,52.772 20.939,47.21 20.939,47.21 C20.939,47.21 22.947,52.772 29.737,52.772 C36.526,52.772 38.385,47.368 38.385,47.368 C38.385,47.368 36.526,52.772 29.737,52.772 L29.737,52.772 Z" id="Fill-2" sketch:type="MSShapeGroup"></path>
            </g>
        </g>
    </g>
</svg>