<?xml version="1.0" encoding="UTF-8" standalone="no"?>
<svg width="80px" height="80px" viewBox="0 0 80 80" version="1.1" xmlns="http://www.w3.org/2000/svg" xmlns:xlink="http://www.w3.org/1999/xlink" xmlns:sketch="http://www.bohemiancoding.com/sketch/ns">
    <!-- Generator: Sketch 3.4.1 (15681) - http://www.bohemiancoding.com/sketch -->
    <title>upload-selected</title>
    <desc>Created with Sketch.</desc>
    <defs></defs>
    <g id="Page-1" stroke="none" stroke-width="1" fill="none" fill-rule="evenodd" sketch:type="MSPage">
        <g id="upload-selected" sketch:type="MSArtboardGroup">
            <g id="Group" sketch:type="MSLayerGroup" transform="translate(1.000000, 13.000000)" stroke="#444444" stroke-width="2">
                <path d="M39,49.6363636 L39,21.2727273" id="Shape" sketch:type="MSShapeGroup"></path>
                <path d="M28.3636364,31.9090909 L39,21.2727273 L49.6363636,31.9090909" id="Shape" sketch:type="MSShapeGroup"></path>
                <path d="M53.1818182,53.1818182 L63.8181818,53.1818182 C71.6181818,53.1818182 78,46.8 78,39 C78,31.2 71.6181818,24.8181818 63.8181818,24.8181818 C63.8181818,24.8181818 63.8181818,24.8181818 63.6409091,24.8181818 C62.7545455,10.9909091 51.2318182,0 37.2272727,0 C23.0454545,0 11.3454545,11.1681818 10.6363636,25.35 C4.43181818,26.9454545 0,32.4409091 0,39 C0,46.8 6.38181818,53.1818182 14.1818182,53.1818182 L24.8181818,53.1818182" id="Shape" sketch:type="MSShapeGroup"></path>
            </g>
            <g id="Imported-Layers-+-Path-8-Copy-2" sketch:type="MSLayerGroup" transform="translate(50.000000, 7.000000)">
                <g id="Imported-Layers" fill="#00AEFF" sketch:type="MSShapeGroup">
                    <path d="M11.4782609,6.26086957 L12.5217391,6.26086957 L12.5217391,17.7391304 L11.4782609,17.7391304 L11.4782609,6.26086957 Z" id="Fill-1"></path>
                    <path d="M6.26086957,11.4782609 L17.7391304,11.4782609 L17.7391304,12.5217391 L6.26086957,12.5217391 L6.26086957,11.4782609 Z" id="Fill-2"></path>
                    <path d="M12,24 C5.38330435,24 0,18.6166957 0,12 C0,5.38330435 5.38330435,0 12,0 C18.6166957,0 24,5.38330435 24,12 C24,18.6166957 18.6166957,24 12,24 L12,24 Z" id="Fill-3"></path>
                </g>
                <path d="M8,12 L11.2,16 L16,8" id="Path-8" stroke="#FFFFFF" stroke-width="2" stroke-linecap="round" sketch:type="MSShapeGroup"></path>
            </g>
        </g>
    </g>
</svg>