<?xml version="1.0" encoding="UTF-8" standalone="no"?>
<svg width="80px" height="80px" viewBox="0 0 80 80" version="1.1" xmlns="http://www.w3.org/2000/svg" xmlns:xlink="http://www.w3.org/1999/xlink">
    <!-- Generator: Sketch 3.7.1 (28215) - http://www.bohemiancoding.com/sketch -->
    <title>Group 5</title>
    <desc>Created with Sketch.</desc>
    <defs></defs>
    <g id="Project-Creation" stroke="none" stroke-width="1" fill="none" fill-rule="evenodd">
        <g id="Project-Creation---platforms---Other-work" transform="translate(-913.000000, -324.000000)">
            <g id="Group-5" transform="translate(913.000000, 324.000000)">
                <g id="Imported-Layers" fill="#706E6E">
                    <polygon id="Fill-1" points="39.024 0.976 40.975 0.976 40.975 79.025 39.024 79.025"></polygon>
                    <polygon id="Fill-2" points="0.976 39.024 79.025 39.024 79.025 40.975 0.976 40.975"></polygon>
                    <polygon id="Fill-3" points="6.244 19.512 73.755 19.512 73.755 21.463 6.244 21.463"></polygon>
                    <polygon id="Fill-4" points="6.244 58.537 73.755 58.537 73.755 60.488 6.244 60.488"></polygon>
                    <path d="M40,80 C17.944,80 0,62.056 0,40 C0,17.944 17.944,0 40,0 C62.056,0 80,17.944 80,40 C80,62.056 62.056,80 40,80 L40,80 Z M40,1.951 C19.021,1.951 1.951,19.02 1.951,40 C1.951,60.979 19.021,78.049 40,78.049 C60.979,78.049 78.049,60.979 78.049,40 C78.049,19.02 60.979,1.951 40,1.951 L40,1.951 Z" id="Fill-5"></path>
                    <path d="M40,80 C28.702,80 19.512,62.056 19.512,40 C19.512,17.944 28.702,0 40,0 C51.298,0 60.488,17.944 60.488,40 C60.488,62.056 51.298,80 40,80 L40,80 Z M40,1.951 C29.779,1.951 21.463,19.02 21.463,40 C21.463,60.979 29.779,78.049 40,78.049 C50.221,78.049 58.537,60.979 58.537,40 C58.537,19.02 50.221,1.951 40,1.951 L40,1.951 Z" id="Fill-6"></path>
                </g>
                <g id="Imported-Layers-+-Path-8-Copy-3" transform="translate(28.000000, 28.000000)">
                    <g id="Imported-Layers" fill="#00AEFF">
                        <polygon id="Fill-1" points="11.4782609 6.26086957 12.5217391 6.26086957 12.5217391 17.7391304 11.4782609 17.7391304"></polygon>
                        <polygon id="Fill-2" points="6.26086957 11.4782609 17.7391304 11.4782609 17.7391304 12.5217391 6.26086957 12.5217391"></polygon>
                        <path d="M12,24 C5.38330435,24 0,18.6166957 0,12 C0,5.38330435 5.38330435,0 12,0 C18.6166957,0 24,5.38330435 24,12 C24,18.6166957 18.6166957,24 12,24 L12,24 Z" id="Fill-3"></path>
                    </g>
                    <polyline id="Path-8" stroke="#FFFFFF" stroke-width="2" stroke-linecap="round" points="8 12 11.2 16 16 8"></polyline>
                </g>
            </g>
        </g>
    </g>
</svg>